<?xml version="1.0" encoding="UTF-8"?>
<svg width="1120" height="760" xmlns="http://www.w3.org/2000/svg" font-family="Arial,Helvetica,sans-serif">

  <!-- Background -->
  <rect width="1120" height="760" fill="#f1f5f9"/>

  <!-- Title -->
  <text x="560" y="35" text-anchor="middle" font-size="17" font-weight="700" fill="#0f172a" letter-spacing="0.3">MisGastos — Esquema de Base de Datos</text>

  <!-- ============================================================
       RELATIONSHIP LINES  (drawn first so tables appear on top)
       ============================================================ -->

  <!-- 1. investment_instruments → investments  (1:N via asset_symbol) -->
  <line x1="197" y1="275" x2="197" y2="415" stroke="#64748b" stroke-width="1.5" stroke-dasharray="6,3"/>
  <text x="203" y="289" font-size="11" fill="#1d4ed8" font-weight="700">1</text>
  <text x="203" y="410" font-size="11" fill="#b45309" font-weight="700">N</text>

  <!-- 2. accounts → transactions  (1:N via account_id) -->
  <polyline points="715,290 755,290 755,185 795,185" fill="none" stroke="#64748b" stroke-width="1.5" stroke-dasharray="6,3"/>
  <text x="719" y="287" font-size="11" fill="#1d4ed8" font-weight="700">1</text>
  <text x="782" y="182" font-size="11" fill="#b45309" font-weight="700">N</text>

  <!-- 3. accounts → assets  (1:N via account_id) -->
  <polyline points="715,330 762,330 762,515 795,515" fill="none" stroke="#64748b" stroke-width="1.5" stroke-dasharray="6,3"/>
  <text x="719" y="328" font-size="11" fill="#1d4ed8" font-weight="700">1</text>
  <text x="782" y="512" font-size="11" fill="#b45309" font-weight="700">N</text>

  <!-- 4. accounts → investments  (1:N via source_account_id) -->
  <polyline points="445,308 405,308 405,545 340,545" fill="none" stroke="#64748b" stroke-width="1.5" stroke-dasharray="6,3"/>
  <text x="416" y="305" font-size="11" fill="#1d4ed8" font-weight="700">1</text>
  <text x="344" y="542" font-size="11" fill="#b45309" font-weight="700">N</text>

  <!-- ============================================================
       TABLE: investment_instruments   x=55 y=155 w=285 h=120
       ============================================================ -->
  <rect x="55" y="155" width="285" height="120" rx="6" fill="white" stroke="#94a3b8" stroke-width="1.5"/>
  <!-- header -->
  <path d="M61,155 H334 Q340,155 340,161 V191 H55 V161 Q55,155 61,155 Z" fill="#1e3a8a"/>
  <text x="197" y="177" text-anchor="middle" fill="white" font-weight="700" font-size="12">investment_instruments</text>
  <!-- row 0 — PK symbol -->
  <rect x="55" y="191" width="285" height="28" fill="#dbeafe"/>
  <line x1="55" y1="219" x2="340" y2="219" stroke="#e2e8f0" stroke-width="1"/>
  <rect x="63" y="197" width="24" height="15" rx="3" fill="#1d4ed8"/>
  <text x="75" y="209" text-anchor="middle" fill="white" font-size="9" font-weight="700">PK</text>
  <text x="95" y="209" fill="#1e293b" font-size="11.5">symbol : VARCHAR(20)</text>
  <!-- row 1 — name -->
  <rect x="55" y="219" width="285" height="28" fill="white"/>
  <line x1="55" y1="247" x2="340" y2="247" stroke="#e2e8f0" stroke-width="1"/>
  <text x="95" y="237" fill="#1e293b" font-size="11.5">name : VARCHAR(255)</text>
  <!-- row 2 — asset_type -->
  <rect x="55" y="247" width="285" height="28" fill="white"/>
  <text x="95" y="265" fill="#1e293b" font-size="11.5">asset_type : VARCHAR(50)</text>
  <text x="185" y="271" fill="#64748b" font-size="9" font-style="italic">stock | etf | crypto | fund</text>

  <!-- ============================================================
       TABLE: accounts   x=445 y=243 w=270 h=120
       ============================================================ -->
  <rect x="445" y="243" width="270" height="120" rx="6" fill="white" stroke="#94a3b8" stroke-width="1.5"/>
  <!-- header -->
  <path d="M451,243 H709 Q715,243 715,249 V279 H445 V249 Q445,243 451,243 Z" fill="#1e3a8a"/>
  <text x="580" y="265" text-anchor="middle" fill="white" font-weight="700" font-size="12">accounts</text>
  <!-- row 0 — PK id -->
  <rect x="445" y="279" width="270" height="28" fill="#dbeafe"/>
  <line x1="445" y1="307" x2="715" y2="307" stroke="#e2e8f0" stroke-width="1"/>
  <rect x="453" y="285" width="24" height="15" rx="3" fill="#1d4ed8"/>
  <text x="465" y="297" text-anchor="middle" fill="white" font-size="9" font-weight="700">PK</text>
  <text x="485" y="297" fill="#1e293b" font-size="11.5">id : INTEGER</text>
  <!-- row 1 — name -->
  <rect x="445" y="307" width="270" height="28" fill="white"/>
  <line x1="445" y1="335" x2="715" y2="335" stroke="#e2e8f0" stroke-width="1"/>
  <text x="485" y="325" fill="#1e293b" font-size="11.5">name : VARCHAR(100)</text>
  <!-- row 2 — initial_balance -->
  <rect x="445" y="335" width="270" height="28" fill="white"/>
  <text x="485" y="353" fill="#1e293b" font-size="11.5">initial_balance : NUMERIC(12,2)</text>

  <!-- ============================================================
       TABLE: transactions   x=795 y=55 w=285 h=260
       ============================================================ -->
  <rect x="795" y="55" width="285" height="260" rx="6" fill="white" stroke="#94a3b8" stroke-width="1.5"/>
  <!-- header -->
  <path d="M801,55 H1074 Q1080,55 1080,61 V91 H795 V61 Q795,55 801,55 Z" fill="#1e3a8a"/>
  <text x="937" y="77" text-anchor="middle" fill="white" font-weight="700" font-size="12">transactions</text>
  <!-- row 0 — PK id -->
  <rect x="795" y="91" width="285" height="28" fill="#dbeafe"/>
  <line x1="795" y1="119" x2="1080" y2="119" stroke="#e2e8f0" stroke-width="1"/>
  <rect x="803" y="97" width="24" height="15" rx="3" fill="#1d4ed8"/>
  <text x="815" y="109" text-anchor="middle" fill="white" font-size="9" font-weight="700">PK</text>
  <text x="835" y="109" fill="#1e293b" font-size="11.5">id : INTEGER</text>
  <!-- row 1 — description -->
  <rect x="795" y="119" width="285" height="28" fill="white"/>
  <line x1="795" y1="147" x2="1080" y2="147" stroke="#e2e8f0" stroke-width="1"/>
  <text x="835" y="137" fill="#1e293b" font-size="11.5">description : VARCHAR(255)</text>
  <!-- row 2 — amount -->
  <rect x="795" y="147" width="285" height="28" fill="white"/>
  <line x1="795" y1="175" x2="1080" y2="175" stroke="#e2e8f0" stroke-width="1"/>
  <text x="835" y="165" fill="#1e293b" font-size="11.5">amount : NUMERIC(12,2)</text>
  <!-- row 3 — category -->
  <rect x="795" y="175" width="285" height="28" fill="white"/>
  <line x1="795" y1="203" x2="1080" y2="203" stroke="#e2e8f0" stroke-width="1"/>
  <text x="835" y="193" fill="#1e293b" font-size="11.5">category : VARCHAR(100)</text>
  <!-- row 4 — date -->
  <rect x="795" y="203" width="285" height="28" fill="white"/>
  <line x1="795" y1="231" x2="1080" y2="231" stroke="#e2e8f0" stroke-width="1"/>
  <text x="835" y="221" fill="#1e293b" font-size="11.5">date : DATE</text>
  <!-- row 5 — is_income -->
  <rect x="795" y="231" width="285" height="28" fill="white"/>
  <line x1="795" y1="259" x2="1080" y2="259" stroke="#e2e8f0" stroke-width="1"/>
  <text x="835" y="249" fill="#1e293b" font-size="11.5">is_income : BOOLEAN</text>
  <!-- row 6 — notes -->
  <rect x="795" y="259" width="285" height="28" fill="white"/>
  <line x1="795" y1="287" x2="1080" y2="287" stroke="#e2e8f0" stroke-width="1"/>
  <text x="835" y="277" fill="#1e293b" font-size="11.5">notes : TEXT (nullable)</text>
  <!-- row 7 — FK account_id -->
  <rect x="795" y="287" width="285" height="28" fill="#fef9c3"/>
  <rect x="803" y="293" width="24" height="15" rx="3" fill="#92400e"/>
  <text x="815" y="305" text-anchor="middle" fill="white" font-size="9" font-weight="700">FK</text>
  <text x="835" y="305" fill="#1e293b" font-size="11.5">account_id : INTEGER (nullable)</text>

  <!-- ============================================================
       TABLE: investments   x=55 y=415 w=285 h=260
       ============================================================ -->
  <rect x="55" y="415" width="285" height="260" rx="6" fill="white" stroke="#94a3b8" stroke-width="1.5"/>
  <!-- header -->
  <path d="M61,415 H334 Q340,415 340,421 V451 H55 V421 Q55,415 61,415 Z" fill="#1e3a8a"/>
  <text x="197" y="437" text-anchor="middle" fill="white" font-weight="700" font-size="12">investments</text>
  <!-- row 0 — PK id -->
  <rect x="55" y="451" width="285" height="28" fill="#dbeafe"/>
  <line x1="55" y1="479" x2="340" y2="479" stroke="#e2e8f0" stroke-width="1"/>
  <rect x="63" y="457" width="24" height="15" rx="3" fill="#1d4ed8"/>
  <text x="75" y="469" text-anchor="middle" fill="white" font-size="9" font-weight="700">PK</text>
  <text x="95" y="469" fill="#1e293b" font-size="11.5">id : INTEGER</text>
  <!-- row 1 — FK asset_symbol -->
  <rect x="55" y="479" width="285" height="28" fill="#fef9c3"/>
  <line x1="55" y1="507" x2="340" y2="507" stroke="#e2e8f0" stroke-width="1"/>
  <rect x="63" y="485" width="24" height="15" rx="3" fill="#92400e"/>
  <text x="75" y="497" text-anchor="middle" fill="white" font-size="9" font-weight="700">FK</text>
  <text x="95" y="497" fill="#1e293b" font-size="11.5">asset_symbol : VARCHAR(20)</text>
  <!-- row 2 — quantity -->
  <rect x="55" y="507" width="285" height="28" fill="white"/>
  <line x1="55" y1="535" x2="340" y2="535" stroke="#e2e8f0" stroke-width="1"/>
  <text x="95" y="525" fill="#1e293b" font-size="11.5">quantity : NUMERIC(18,8)</text>
  <!-- row 3 — purchase_price -->
  <rect x="55" y="535" width="285" height="28" fill="white"/>
  <line x1="55" y1="563" x2="340" y2="563" stroke="#e2e8f0" stroke-width="1"/>
  <text x="95" y="553" fill="#1e293b" font-size="11.5">purchase_price : NUMERIC(12,2)</text>
  <!-- row 4 — purchase_date -->
  <rect x="55" y="563" width="285" height="28" fill="white"/>
  <line x1="55" y1="591" x2="340" y2="591" stroke="#e2e8f0" stroke-width="1"/>
  <text x="95" y="581" fill="#1e293b" font-size="11.5">purchase_date : DATE</text>
  <!-- row 5 — is_initial -->
  <rect x="55" y="591" width="285" height="28" fill="white"/>
  <line x1="55" y1="619" x2="340" y2="619" stroke="#e2e8f0" stroke-width="1"/>
  <text x="95" y="609" fill="#1e293b" font-size="11.5">is_initial : BOOLEAN</text>
  <!-- row 6 — notes -->
  <rect x="55" y="619" width="285" height="28" fill="white"/>
  <line x1="55" y1="647" x2="340" y2="647" stroke="#e2e8f0" stroke-width="1"/>
  <text x="95" y="637" fill="#1e293b" font-size="11.5">notes : TEXT (nullable)</text>
  <!-- row 7 — FK source_account_id -->
  <rect x="55" y="647" width="285" height="28" fill="#fef9c3"/>
  <rect x="63" y="653" width="24" height="15" rx="3" fill="#92400e"/>
  <text x="75" y="665" text-anchor="middle" fill="white" font-size="9" font-weight="700">FK</text>
  <text x="95" y="665" fill="#1e293b" font-size="11.5">source_account_id : INTEGER (nullable)</text>

  <!-- ============================================================
       TABLE: assets   x=795 y=385 w=285 h=260
       ============================================================ -->
  <rect x="795" y="385" width="285" height="260" rx="6" fill="white" stroke="#94a3b8" stroke-width="1.5"/>
  <!-- header -->
  <path d="M801,385 H1074 Q1080,385 1080,391 V421 H795 V391 Q795,385 801,385 Z" fill="#1e3a8a"/>
  <text x="937" y="407" text-anchor="middle" fill="white" font-weight="700" font-size="12">assets</text>
  <!-- row 0 — PK id -->
  <rect x="795" y="421" width="285" height="28" fill="#dbeafe"/>
  <line x1="795" y1="449" x2="1080" y2="449" stroke="#e2e8f0" stroke-width="1"/>
  <rect x="803" y="427" width="24" height="15" rx="3" fill="#1d4ed8"/>
  <text x="815" y="439" text-anchor="middle" fill="white" font-size="9" font-weight="700">PK</text>
  <text x="835" y="439" fill="#1e293b" font-size="11.5">id : INTEGER</text>
  <!-- row 1 — name -->
  <rect x="795" y="449" width="285" height="28" fill="white"/>
  <line x1="795" y1="477" x2="1080" y2="477" stroke="#e2e8f0" stroke-width="1"/>
  <text x="835" y="467" fill="#1e293b" font-size="11.5">name : VARCHAR(255)</text>
  <!-- row 2 — value -->
  <rect x="795" y="477" width="285" height="28" fill="white"/>
  <line x1="795" y1="505" x2="1080" y2="505" stroke="#e2e8f0" stroke-width="1"/>
  <text x="835" y="495" fill="#1e293b" font-size="11.5">value : NUMERIC(12,2)</text>
  <!-- row 3 — category -->
  <rect x="795" y="505" width="285" height="28" fill="white"/>
  <line x1="795" y1="533" x2="1080" y2="533" stroke="#e2e8f0" stroke-width="1"/>
  <text x="835" y="523" fill="#1e293b" font-size="11.5">category : VARCHAR(100)</text>
  <!-- row 4 — acquisition_date -->
  <rect x="795" y="533" width="285" height="28" fill="white"/>
  <line x1="795" y1="561" x2="1080" y2="561" stroke="#e2e8f0" stroke-width="1"/>
  <text x="835" y="551" fill="#1e293b" font-size="11.5">acquisition_date : DATE</text>
  <!-- row 5 — is_initial -->
  <rect x="795" y="561" width="285" height="28" fill="white"/>
  <line x1="795" y1="589" x2="1080" y2="589" stroke="#e2e8f0" stroke-width="1"/>
  <text x="835" y="579" fill="#1e293b" font-size="11.5">is_initial : BOOLEAN</text>
  <!-- row 6 — notes -->
  <rect x="795" y="589" width="285" height="28" fill="white"/>
  <line x1="795" y1="617" x2="1080" y2="617" stroke="#e2e8f0" stroke-width="1"/>
  <text x="835" y="607" fill="#1e293b" font-size="11.5">notes : TEXT (nullable)</text>
  <!-- row 7 — FK account_id -->
  <rect x="795" y="617" width="285" height="28" fill="#fef9c3"/>
  <rect x="803" y="623" width="24" height="15" rx="3" fill="#92400e"/>
  <text x="815" y="635" text-anchor="middle" fill="white" font-size="9" font-weight="700">FK</text>
  <text x="835" y="635" fill="#1e293b" font-size="11.5">account_id : INTEGER (nullable)</text>

  <!-- ============================================================
       LEGEND
       ============================================================ -->
  <rect x="55" y="705" width="510" height="38" rx="5" fill="white" stroke="#94a3b8" stroke-width="1"/>
  <rect x="68"  y="717" width="18" height="13" rx="3" fill="#dbeafe" stroke="#94a3b8" stroke-width="0.8"/>
  <text x="92"  y="728" font-size="11" fill="#475569">Clave Primaria (PK)</text>
  <rect x="215" y="717" width="18" height="13" rx="3" fill="#fef9c3" stroke="#94a3b8" stroke-width="0.8"/>
  <text x="239" y="728" font-size="11" fill="#475569">Clave Foránea (FK)</text>
  <line x1="370" y1="723" x2="402" y2="723" stroke="#64748b" stroke-width="1.5" stroke-dasharray="6,3"/>
  <text x="408" y="728" font-size="11" fill="#475569">Relación  </text>
  <text x="453" y="728" font-size="11" fill="#1d4ed8" font-weight="700">1</text>
  <text x="462" y="728" font-size="11" fill="#475569"> : </text>
  <text x="472" y="728" font-size="11" fill="#b45309" font-weight="700">N</text>

</svg>
